# xmcd
#
# Track frame offsets: 
#        150
#        13598
#        23408
#        36431
#        45478
#        57725
#        68558
#        80725
#        92946
#        102500
#        115983
#        127032
#        136535
#        145369
#        154732
#        163350
#        171579
#        179930
#        189284
#        199267
#        208645
#        222648
#        234437
#        245362
#        257417
#        267681
#        277254
#        291420
#        301126
#        311583
#        319399
#        327214
#
# Disc length: 4488 seconds
#
# Revision: 3
# Processed by: cddbd v1.5.2PL0 Copyright (c) Steve Scherf et al.
# Submitted via: ExactAudioCopy v1.3
#
DISCID=fa118620
DTITLE=Buck Owens and his Buckaroos - Tall Dark Stranger_CD1
DYEAR=2012
DGENRE=Country
TTITLE0=Tall Dark Stranger
TTITLE1=I've Got a Happy Heart
TTITLE2=Somewhere Between
TTITLE3=Just a Few More Days
TTITLE4=Lonesome Valley
TTITLE5=My Savior Leads the Way
TTITLE6=But You Know I Love You
TTITLE7=Today I Started Loving You Again
TTITLE8=The Buckaroos - I'm a Natural Loser
TTITLE9=The Buckaroos - The Biggest Storm of All
TTITLE10=The Buckaroos - If I Had You (By My Side)
TTITLE11=The Buckaroos - Down at the Corner Bar
TTITLE12=The Buckaroos - Nobody But You
TTITLE13=The Buckaroos - Lay a Little Light On Me
TTITLE14=The Buckaroos - Catfish Capers
TTITLE15=The Buckaroos - Bossanova Buckaroo Style
TTITLE16=The Buckaroos - Sweet-T-Pie
TTITLE17=The Buckaroos - Roll Your Own
TTITLE18=When the Roll Is Called Up Yonder
TTITLE19=That Old Time Religion
TTITLE20=Big in Vegas
TTITLE21=Love Is Strange
TTITLE22=The Buckaroos - Cinderella
TTITLE23=The Buckaroos - I'll Be All Right Tomorrow
TTITLE24=The Buckaroos - Hurry Come Running Back to Me
TTITLE25=The Buckaroos - Ensenada
TTITLE26=The Buckaroos - The Night They Drove Old Dixie Down
TTITLE27=The Buckaroos - Take Care of You for Me in Kansas City
TTITLE28=The Buckaroos - One More Time
TTITLE29=The Buckaroos - Goin' Home to The Bayou
TTITLE30=The Buckaroos - Country Pickin'
TTITLE31=The Buckaroos - Rompin ' And Stompin'
EXTD=
EXTT0=
EXTT1=
EXTT2=
EXTT3=
EXTT4=
EXTT5=
EXTT6=
EXTT7=
EXTT8=
EXTT9=
EXTT10=
EXTT11=
EXTT12=
EXTT13=
EXTT14=
EXTT15=
EXTT16=
EXTT17=
EXTT18=
EXTT19=
EXTT20=
EXTT21=
EXTT22=
EXTT23=
EXTT24=
EXTT25=
EXTT26=
EXTT27=
EXTT28=
EXTT29=
EXTT30=
EXTT31=
PLAYORDER=
